Coordinates
version=1
nRows=14
nColumns=40
inDegrees=yes

Units are S.I. units (second, meters, Newtons, ...)
Angles are in degrees.

endheader
time	pelvis_tilt	pelvis_list	pelvis_rotation	pelvis_tx	pelvis_ty	pelvis_tz	hip_flexion_r	hip_adduction_r	hip_rotation_r	knee_angle_r	knee_angle_r_beta	ankle_angle_r	subtalar_angle_r	mtp_angle_r	hip_flexion_l	hip_adduction_l	hip_rotation_l	knee_angle_l	knee_angle_l_beta	ankle_angle_l	subtalar_angle_l	mtp_angle_l	lumbar_extension	lumbar_bending	lumbar_rotation	arm_flex_r	arm_add_r	arm_rot_r	elbow_flex_r	pro_sup_r	wrist_flex_r	wrist_dev_r	arm_flex_l	arm_add_l	arm_rot_l	elbow_flex_l	pro_sup_l	wrist_flex_l	wrist_dev_l
     44.06778571	     -6.79342453	     -6.22525714	      3.03423408	      0.94796283	      0.91619145	      0.48740890	      2.61041930	      4.54727454	    -14.11022264	     12.77171983	     12.77171983	     18.07264222	      4.43174465	     -1.88454464	     32.38379411	     -7.99493171	     -1.40117403	     21.06170350	     21.06170350	      1.89180579	    -10.36998385	      4.59633381	     -9.24058955	      6.64108886	      2.95447599	     42.50506495	    -16.93142182	      0.03079325	    101.74577496	     44.27881949	      0.00000000	      0.00000000	    -12.50294332	     -6.75978415	      2.26129575	     26.28117523	     44.71021981	      0.00000000	      0.00000000
     44.08057143	     -6.75295351	     -6.15193442	      2.98478862	      0.94940486	      0.91558586	      0.48526583	      2.05112266	      4.32790427	    -13.99793949	     12.86576562	     12.86576562	     18.37491189	      4.47398093	     -1.90429817	     32.18514769	     -7.79286276	     -1.13140132	     21.93423015	     21.93423015	      1.91672272	    -10.66990217	      4.36870415	     -9.10577228	      6.45689214	      3.09067095	     42.07369470	    -16.70604121	      0.22129336	    101.74207442	     44.27336988	      0.00000000	      0.00000000	    -12.63957756	     -6.71379240	      2.29542179	     26.22823850	     44.70476847	      0.00000000	      0.00000000
     44.09335714	     -6.70372801	     -6.21027946	      2.91088842	      0.95079580	      0.91503416	      0.48302371	      1.60078073	      4.19176330	    -13.95403902	     13.16897988	     13.16897988	     18.62820748	      4.62166385	     -1.78877004	     32.21880282	     -7.71627776	     -0.71414421	     23.19153275	     23.19153275	      2.11977833	    -11.33894778	      3.99938005	     -9.02661357	      6.39930513	      3.09065435	     41.48709321	    -16.54294414	      0.49242487	    101.69124517	     44.27107645	      0.00000000	      0.00000000	    -12.64208557	     -6.72506893	      2.38532541	     26.19374936	     44.69780039	      0.00000000	      0.00000000
     44.10614286	     -6.60667521	     -6.08883001	      2.82211965	      0.95221475	      0.91494638	      0.48060463	      1.10061860	      3.85997923	    -13.82904285	     13.47444329	     13.47444329	     18.80325535	      4.63252824	     -1.77346725	     31.96282810	     -7.47627357	     -0.48010496	     24.04512612	     24.04512612	      2.52531425	    -11.77659063	      3.73091857	     -9.01811736	      6.16202547	      3.16556629	     40.76757959	    -16.33835118	      0.73979452	    101.48233151	     44.26964501	      0.00000000	      0.00000000	    -12.50559539	     -6.68731227	      2.42605685	     26.22648033	     44.69652401	      0.00000000	      0.00000000
     44.11892857	     -6.49204236	     -6.02366603	      2.73823694	      0.95353293	      0.91501335	      0.47807082	      0.71611191	      3.53781721	    -13.72407605	     14.01033903	     14.01033903	     18.94112243	      4.62123099	     -1.77831620	     31.75001092	     -7.27539105	     -0.21155801	     24.96129786	     24.96129786	      3.08311721	    -12.34791565	      3.48452663	     -9.04419546	      6.01625510	      3.24344527	     39.93126239	    -16.19925461	      1.00705642	    101.11688121	     44.27258411	      0.00000000	      0.00000000	    -12.26272838	     -6.69951903	      2.46463154	     26.28321521	     44.69810618	      0.00000000	      0.00000000
     44.13171429	     -6.58430033	     -5.94270590	      2.60614674	      0.95452460	      0.91492644	      0.47535374	      0.92197611	      3.06519085	    -13.70122288	     15.22005595	     15.22005595	     19.19253820	      4.54865362	     -1.76784704	     31.75859603	     -6.99877401	      0.15575934	     25.83929796	     25.83929796	      3.77567595	    -13.15168500	      3.67313419	     -8.84095618	      5.87546283	      3.46157204	     39.13380778	    -16.39521789	      1.35908489	    100.22701236	     44.29739039	      0.00000000	      0.00000000	    -11.82630175	     -6.70182700	      2.58750203	     26.33420236	     44.69826882	      0.00000000	      0.00000000
     44.14450000	     -6.37172110	     -5.88496150	      2.51036618	      0.95588536	      0.91561761	      0.47259723	      0.55582826	      2.70999291	    -13.57749655	     15.95348744	     15.95348744	     19.17703558	      4.46327347	     -1.82653732	     31.26642448	     -6.80309052	      0.32300352	     26.44482334	     26.44482334	      4.49996124	    -13.60760739	      3.52874195	     -8.98493228	      5.79652006	      3.48966820	     38.05505286	    -16.14503465	      1.70707987	     99.71669079	     44.30104997	      0.00000000	      0.00000000	    -11.39445163	     -6.69411425	      2.62119402	     26.46443059	     44.70359840	      0.00000000	      0.00000000
     44.15728571	     -6.43474486	     -5.69673116	      2.30996525	      0.95680789	      0.91595888	      0.46978829	      1.05175718	      2.03535964	    -13.41034078	     17.73368076	     17.73368076	     19.28491577	      4.14586284	     -2.19287610	     31.03243115	     -6.46035556	      0.39895123	     26.98333401	     26.98333401	      5.30826116	    -14.22134207	      3.89424758	     -8.81915161	      5.52823925	      3.77453774	     37.05723530	    -16.37977631	      2.10051209	     98.37789613	     44.33635266	      0.00000000	      0.00000000	    -10.80818819	     -6.75817838	      2.68478960	     26.63616556	     44.71407524	      0.00000000	      0.00000000
     44.17007143	     -6.36801094	     -5.57980823	      2.13014874	      0.95784178	      0.91672781	      0.46688634	      1.34493297	      1.46413165	    -13.20740394	     19.35152512	     19.35152512	     19.12345760	      3.83044283	     -2.63318701	     30.55768773	     -6.19828894	      0.42766205	     27.34076080	     27.34076080	      6.10883682	    -14.61944611	      4.21334872	     -8.82476010	      5.42096589	      3.86360837	     35.92554709	    -16.32851187	      2.55735893	     97.16143741	     44.36414908	      0.00000000	      0.00000000	    -10.19650383	     -6.77860244	      2.73150425	     26.87102100	     44.72635454	      0.00000000	      0.00000000
     44.18285714	     -6.35139420	     -5.49758685	      1.95802552	      0.95872018	      0.91751727	      0.46405126	      1.85789973	      0.91378089	    -12.98222573	     21.16513866	     21.16513866	     18.26679523	      3.11472813	     -4.87729669	     30.19547375	     -5.96720164	      0.43861265	     27.82373372	     27.82373372	      7.64534068	    -14.67916066	      6.52781925	     -8.71142576	      5.28558027	      3.36107431	     35.32477871	    -15.88052192	      3.74247823	     94.50549632	     44.46622322	      0.00000000	      0.00000000	     -9.92314450	     -6.79914015	      2.84515132	     27.44092234	     44.78094745	      0.00000000	      0.00000000
     44.19564286	     -6.21543742	     -5.37319375	      1.71586876	      0.95969345	      0.91853115	      0.46127577	      2.44821021	      0.26746002	    -12.66454240	     23.40382510	     23.40382510	     17.79292707	      2.56794676	     -5.52738375	     29.48593006	     -5.77318078	      0.19820979	     27.90229345	     27.90229345	      8.22297718	    -14.79475111	      6.36858602	     -8.81554000	      5.15351310	      3.61795854	     33.90033755	    -15.87300246	      4.08479821	     93.45496275	     44.48909174	      0.00000000	      0.00000000	     -9.18562884	     -6.90961456	      2.77315680	     27.88954375	     44.81129855	      0.00000000	      0.00000000
     44.20842857	     -6.17195429	     -5.27265743	      1.46742150	      0.96053192	      0.91939122	      0.45852407	      3.39800577	     -0.39127831	    -12.34446732	     26.06909637	     26.06909637	     17.12282490	      1.73759679	     -6.54339092	     28.81880595	     -5.59830901	     -0.09325587	     27.86249163	     27.86249163	      8.75946860	    -14.89911787	      6.24548684	     -8.77117191	      5.04741831	      3.80243323	     32.43229833	    -15.89226301	      4.41534168	     92.02722205	     44.52444825	      0.00000000	      0.00000000	     -8.41244680	     -7.00401898	      2.68437108	     28.44419185	     44.84445856	      0.00000000	      0.00000000
     44.22121429	     -6.13662681	     -5.23331267	      1.24156646	      0.96120311	      0.92022170	      0.45588493	      4.37184902	     -0.85848500	    -11.68467189	     28.46639530	     28.46639530	     14.54102995	     -0.47055046	    -12.00860153	     28.17412438	     -5.47509362	     -0.30428223	     27.79911326	     27.79911326	      9.28827583	    -14.92906274	      6.32884362	     -8.66385137	      4.99883477	      3.22047748	     31.81425452	    -15.04395948	      5.05415196	     88.36432050	     44.66035971	      0.00000000	      0.00000000	     -8.33642470	     -7.17963721	      2.25745089	     29.98873983	     44.96124274	      0.00000000	      0.00000000
     44.23400000	     -6.04151467	     -5.08038792	      0.99572954	      0.96180925	      0.92108022	      0.45318928	      5.66017591	     -1.64009069	    -11.36164524	     31.74561130	     31.74561130	     13.46241740	     -1.37268663	    -12.83204217	     27.41921775	     -5.27450363	     -0.73611569	     27.66982751	     27.66982751	      9.71744131	    -14.79902551	      6.12675822	     -8.75383067	      4.85666047	      3.29927491	     30.11696765	    -15.10120479	      5.47053450	     87.26124613	     44.68015196	      0.00000000	      0.00000000	     -7.43864306	     -7.35310221	      2.11984470	     30.54210787	     45.00159430	      0.00000000	      0.00000000
